<?xml version="1.0" encoding="UTF-8"?>
<!DOCTYPE svg PUBLIC "-//W3C//DTD SVG 1.1//EN" "http://www.w3.org/Graphics/SVG/1.1/DTD/svg11.dtd">
<svg width="271mm" height="169mm" viewBox="0 0 27100 16900" version="1.1" xmlns="http://www.w3.org/2000/svg" xmlns:xlink="http://www.w3.org/1999/xlink" stroke-width="28.222" stroke-linejoin="round" xml:space="preserve">
 <path fill="rgb(255,255,255)" stroke="none" d="M 13557,16898 L -13,16898 -13,-13 27126,-13 27126,16898 13557,16898 Z "/>
 <path fill="none" stroke="rgb(179,179,179)" stroke-linejoin="round" d="M 13199,14932 L 2460,14932 2460,2798 23938,2798 23938,14932 13199,14932 Z "/>
 <path fill="none" stroke="rgb(179,179,179)" stroke-linejoin="round" d="M 23938,14931 L 2460,14931 "/>
 <path fill="none" stroke="rgb(179,179,179)" stroke-linejoin="round" d="M 23938,11897 L 2460,11897 "/>
 <path fill="none" stroke="rgb(179,179,179)" stroke-linejoin="round" d="M 23938,8863 L 2460,8863 "/>
 <path fill="none" stroke="rgb(179,179,179)" stroke-linejoin="round" d="M 23938,5830 L 2460,5830 "/>
 <path fill="none" stroke="rgb(179,179,179)" stroke-linejoin="round" d="M 23938,2796 L 2460,2796 "/>
 <path fill="none" stroke="rgb(179,179,179)" stroke-linejoin="round" d="M 2460,15081 L 2460,14931 "/>
 <path fill="none" stroke="rgb(179,179,179)" stroke-linejoin="round" d="M 2460,15081 L 2460,14931 "/>
 <path fill="none" stroke="rgb(179,179,179)" stroke-linejoin="round" d="M 13199,15081 L 13199,14931 "/>
 <path fill="none" stroke="rgb(179,179,179)" stroke-linejoin="round" d="M 13199,15081 L 13199,14931 "/>
 <path fill="none" stroke="rgb(179,179,179)" stroke-linejoin="round" d="M 23938,15081 L 23938,14931 "/>
 <path fill="none" stroke="rgb(179,179,179)" stroke-linejoin="round" d="M 23938,15081 L 23938,14931 "/>
 <path fill="none" stroke="rgb(179,179,179)" stroke-linejoin="round" d="M 2460,14931 L 23938,14931 "/>
 <path fill="none" stroke="rgb(179,179,179)" stroke-linejoin="round" d="M 2310,14931 L 2460,14931 "/>
 <path fill="none" stroke="rgb(179,179,179)" stroke-linejoin="round" d="M 2310,14931 L 2460,14931 "/>
 <path fill="none" stroke="rgb(179,179,179)" stroke-linejoin="round" d="M 2310,11897 L 2460,11897 "/>
 <path fill="none" stroke="rgb(179,179,179)" stroke-linejoin="round" d="M 2310,11897 L 2460,11897 "/>
 <path fill="none" stroke="rgb(179,179,179)" stroke-linejoin="round" d="M 2310,8863 L 2460,8863 "/>
 <path fill="none" stroke="rgb(179,179,179)" stroke-linejoin="round" d="M 2310,8863 L 2460,8863 "/>
 <path fill="none" stroke="rgb(179,179,179)" stroke-linejoin="round" d="M 2310,5830 L 2460,5830 "/>
 <path fill="none" stroke="rgb(179,179,179)" stroke-linejoin="round" d="M 2310,5830 L 2460,5830 "/>
 <path fill="none" stroke="rgb(179,179,179)" stroke-linejoin="round" d="M 2310,2797 L 2460,2797 "/>
 <path fill="none" stroke="rgb(179,179,179)" stroke-linejoin="round" d="M 2310,2797 L 2460,2797 "/>
 <path fill="none" stroke="rgb(179,179,179)" stroke-linejoin="round" d="M 2460,14931 L 2460,2796 "/>
 <path fill="none" stroke="rgb(0,69,134)" stroke-width="80" stroke-linejoin="round" d="M 6733,12589 L 9966,9892 11857,8302 13199,7101 14239,6190 15089,5466 15808,4833 16431,4297 "/>
 <path fill="rgb(0,69,134)" stroke="none" d="M 6608,12464 L 6608,12714 6858,12714 6858,12464 6608,12464 Z "/>
 <path fill="none" stroke="rgb(0,69,134)" stroke-linejoin="round" d="M 6608,12464 L 6608,12714 6858,12714 6858,12464 6608,12464 Z "/>
 <path fill="rgb(0,69,134)" stroke="none" d="M 9841,9767 L 9841,10017 10091,10017 10091,9767 9841,9767 Z "/>
 <path fill="none" stroke="rgb(0,69,134)" stroke-linejoin="round" d="M 9841,9767 L 9841,10017 10091,10017 10091,9767 9841,9767 Z "/>
 <path fill="rgb(0,69,134)" stroke="none" d="M 11732,8177 L 11732,8427 11982,8427 11982,8177 11732,8177 Z "/>
 <path fill="none" stroke="rgb(0,69,134)" stroke-linejoin="round" d="M 11732,8177 L 11732,8427 11982,8427 11982,8177 11732,8177 Z "/>
 <path fill="rgb(0,69,134)" stroke="none" d="M 13074,6976 L 13074,7226 13324,7226 13324,6976 13074,6976 Z "/>
 <path fill="none" stroke="rgb(0,69,134)" stroke-linejoin="round" d="M 13074,6976 L 13074,7226 13324,7226 13324,6976 13074,6976 Z "/>
 <path fill="rgb(0,69,134)" stroke="none" d="M 14114,6065 L 14114,6315 14364,6315 14364,6065 14114,6065 Z "/>
 <path fill="none" stroke="rgb(0,69,134)" stroke-linejoin="round" d="M 14114,6065 L 14114,6315 14364,6315 14364,6065 14114,6065 Z "/>
 <path fill="rgb(0,69,134)" stroke="none" d="M 14964,5341 L 14964,5591 15214,5591 15214,5341 14964,5341 Z "/>
 <path fill="none" stroke="rgb(0,69,134)" stroke-linejoin="round" d="M 14964,5341 L 14964,5591 15214,5591 15214,5341 14964,5341 Z "/>
 <path fill="rgb(0,69,134)" stroke="none" d="M 15683,4708 L 15683,4958 15933,4958 15933,4708 15683,4708 Z "/>
 <path fill="none" stroke="rgb(0,69,134)" stroke-linejoin="round" d="M 15683,4708 L 15683,4958 15933,4958 15933,4708 15683,4708 Z "/>
 <path fill="rgb(0,69,134)" stroke="none" d="M 16306,4172 L 16306,4422 16556,4422 16556,4172 16306,4172 Z "/>
 <path fill="none" stroke="rgb(0,69,134)" stroke-linejoin="round" d="M 16306,4172 L 16306,4422 16556,4422 16556,4172 16306,4172 Z "/>
 <text class="SVGTextShape"><tspan class="TextParagraph"><tspan class="TextPosition" x="2174" y="15499"><tspan font-family="Liberation Sans, sans-serif" font-size="353px" font-weight="400" fill="rgb(0,0,0)" stroke="none" style="white-space: pre">100</tspan></tspan></tspan></text>
 <text class="SVGTextShape"><tspan class="TextParagraph"><tspan class="TextPosition" x="12817" y="15499"><tspan font-family="Liberation Sans, sans-serif" font-size="353px" font-weight="400" fill="rgb(0,0,0)" stroke="none" style="white-space: pre">1000</tspan></tspan></tspan></text>
 <text class="SVGTextShape"><tspan class="TextParagraph"><tspan class="TextPosition" x="23461" y="15499"><tspan font-family="Liberation Sans, sans-serif" font-size="353px" font-weight="400" fill="rgb(0,0,0)" stroke="none" style="white-space: pre">10000</tspan></tspan></tspan></text>
 <text class="SVGTextShape"><tspan class="TextParagraph"><tspan class="TextPosition" x="1541" y="15052"><tspan font-family="Liberation Sans, sans-serif" font-size="353px" font-weight="400" fill="rgb(0,0,0)" stroke="none" style="white-space: pre">0.01</tspan></tspan></tspan></text>
 <text class="SVGTextShape"><tspan class="TextParagraph"><tspan class="TextPosition" x="1732" y="12018"><tspan font-family="Liberation Sans, sans-serif" font-size="353px" font-weight="400" fill="rgb(0,0,0)" stroke="none" style="white-space: pre">0.1</tspan></tspan></tspan></text>
 <text class="SVGTextShape"><tspan class="TextParagraph"><tspan class="TextPosition" x="2019" y="8984"><tspan font-family="Liberation Sans, sans-serif" font-size="353px" font-weight="400" fill="rgb(0,0,0)" stroke="none" style="white-space: pre">1</tspan></tspan></tspan></text>
 <text class="SVGTextShape"><tspan class="TextParagraph"><tspan class="TextPosition" x="1827" y="5951"><tspan font-family="Liberation Sans, sans-serif" font-size="353px" font-weight="400" fill="rgb(0,0,0)" stroke="none" style="white-space: pre">10</tspan></tspan></tspan></text>
 <text class="SVGTextShape"><tspan class="TextParagraph"><tspan class="TextPosition" x="1636" y="2918"><tspan font-family="Liberation Sans, sans-serif" font-size="353px" font-weight="400" fill="rgb(0,0,0)" stroke="none" style="white-space: pre">100</tspan></tspan></tspan></text>
 <text class="SVGTextShape"><tspan class="TextParagraph"><tspan class="TextPosition" x="11483" y="997"><tspan font-family="Liberation Sans, sans-serif" font-size="459px" font-weight="400" fill="rgb(0,0,0)" stroke="none" style="white-space: pre">Tiempo de ejecución</tspan></tspan></tspan></text>
 <text class="SVGTextShape"><tspan class="TextParagraph"><tspan class="TextPosition" x="11782" y="2065"><tspan font-family="Liberation Sans, sans-serif" font-size="388px" font-weight="400" fill="rgb(0,0,0)" stroke="none" style="white-space: pre">GaussJordan - CPU</tspan></tspan></tspan></text>
 <path fill="none" stroke="rgb(0,69,134)" stroke-width="80" stroke-linejoin="round" d="M 25076,8442 L 25876,8442 "/>
 <path fill="rgb(0,69,134)" stroke="none" d="M 25370,8337 L 25370,8547 25581,8547 25581,8337 25370,8337 Z "/>
 <path fill="none" stroke="rgb(0,69,134)" stroke-linejoin="round" d="M 25370,8337 L 25370,8547 25581,8547 25581,8337 25370,8337 Z "/>
 <text class="SVGTextShape"><tspan class="TextParagraph"><tspan class="TextPosition" x="25976" y="8561"><tspan font-family="Liberation Sans, sans-serif" font-size="353px" font-weight="400" fill="rgb(0,0,0)" stroke="none" style="white-space: pre">TIME</tspan></tspan></tspan></text>
 <text class="SVGTextShape"><tspan class="TextParagraph"><tspan class="TextPosition" x="12053" y="16304"><tspan font-family="Liberation Sans, sans-serif" font-size="318px" font-weight="400" fill="rgb(0,0,0)" stroke="none" style="white-space: pre">Tamaño SEL</tspan></tspan></tspan></text>
 <text class="SVGTextShape" transform="rotate(-90 825 9618)"><tspan class="TextParagraph"><tspan class="TextPosition" x="825" y="9618"><tspan font-family="Liberation Sans, sans-serif" font-size="318px" font-weight="400" fill="rgb(0,0,0)" stroke="none" style="white-space: pre">Tiempo</tspan></tspan></tspan></text>
</svg>