<?xml version="1.0" encoding="UTF-8"?>
<!DOCTYPE svg PUBLIC "-//W3C//DTD SVG 1.1//EN" "http://www.w3.org/Graphics/SVG/1.1/DTD/svg11.dtd">
<svg width="195mm" height="110mm" viewBox="0 0 19500 11000" version="1.1" xmlns="http://www.w3.org/2000/svg" xmlns:xlink="http://www.w3.org/1999/xlink" stroke-width="28.222" stroke-linejoin="round" xml:space="preserve">
 <path fill="rgb(255,255,255)" stroke="none" d="M 9717,10937 L -13,10937 -13,-13 19446,-13 19446,10937 9717,10937 Z "/>
 <path fill="none" stroke="rgb(179,179,179)" stroke-linejoin="round" d="M 9446,9090 L 2307,9090 2307,2442 16584,2442 16584,9090 9446,9090 Z "/>
 <path fill="none" stroke="rgb(179,179,179)" stroke-linejoin="round" d="M 16584,9089 L 2307,9089 "/>
 <path fill="none" stroke="rgb(179,179,179)" stroke-linejoin="round" d="M 16584,7426 L 2307,7426 "/>
 <path fill="none" stroke="rgb(179,179,179)" stroke-linejoin="round" d="M 16584,5764 L 2307,5764 "/>
 <path fill="none" stroke="rgb(179,179,179)" stroke-linejoin="round" d="M 16584,4103 L 2307,4103 "/>
 <path fill="none" stroke="rgb(179,179,179)" stroke-linejoin="round" d="M 16584,2440 L 2307,2440 "/>
 <path fill="none" stroke="rgb(179,179,179)" stroke-linejoin="round" d="M 2307,9239 L 2307,9089 "/>
 <path fill="none" stroke="rgb(179,179,179)" stroke-linejoin="round" d="M 2307,9239 L 2307,9089 "/>
 <path fill="none" stroke="rgb(179,179,179)" stroke-linejoin="round" d="M 5162,9239 L 5162,9089 "/>
 <path fill="none" stroke="rgb(179,179,179)" stroke-linejoin="round" d="M 5162,9239 L 5162,9089 "/>
 <path fill="none" stroke="rgb(179,179,179)" stroke-linejoin="round" d="M 8018,9239 L 8018,9089 "/>
 <path fill="none" stroke="rgb(179,179,179)" stroke-linejoin="round" d="M 8018,9239 L 8018,9089 "/>
 <path fill="none" stroke="rgb(179,179,179)" stroke-linejoin="round" d="M 10872,9239 L 10872,9089 "/>
 <path fill="none" stroke="rgb(179,179,179)" stroke-linejoin="round" d="M 10872,9239 L 10872,9089 "/>
 <path fill="none" stroke="rgb(179,179,179)" stroke-linejoin="round" d="M 13728,9239 L 13728,9089 "/>
 <path fill="none" stroke="rgb(179,179,179)" stroke-linejoin="round" d="M 13728,9239 L 13728,9089 "/>
 <path fill="none" stroke="rgb(179,179,179)" stroke-linejoin="round" d="M 16584,9239 L 16584,9089 "/>
 <path fill="none" stroke="rgb(179,179,179)" stroke-linejoin="round" d="M 16584,9239 L 16584,9089 "/>
 <path fill="none" stroke="rgb(179,179,179)" stroke-linejoin="round" d="M 2307,9089 L 16584,9089 "/>
 <path fill="none" stroke="rgb(179,179,179)" stroke-linejoin="round" d="M 2157,9089 L 2307,9089 "/>
 <path fill="none" stroke="rgb(179,179,179)" stroke-linejoin="round" d="M 2157,9089 L 2307,9089 "/>
 <path fill="none" stroke="rgb(179,179,179)" stroke-linejoin="round" d="M 2157,7426 L 2307,7426 "/>
 <path fill="none" stroke="rgb(179,179,179)" stroke-linejoin="round" d="M 2157,7426 L 2307,7426 "/>
 <path fill="none" stroke="rgb(179,179,179)" stroke-linejoin="round" d="M 2157,5764 L 2307,5764 "/>
 <path fill="none" stroke="rgb(179,179,179)" stroke-linejoin="round" d="M 2157,5764 L 2307,5764 "/>
 <path fill="none" stroke="rgb(179,179,179)" stroke-linejoin="round" d="M 2157,4103 L 2307,4103 "/>
 <path fill="none" stroke="rgb(179,179,179)" stroke-linejoin="round" d="M 2157,4103 L 2307,4103 "/>
 <path fill="none" stroke="rgb(179,179,179)" stroke-linejoin="round" d="M 2157,2440 L 2307,2440 "/>
 <path fill="none" stroke="rgb(179,179,179)" stroke-linejoin="round" d="M 2157,2440 L 2307,2440 "/>
 <path fill="none" stroke="rgb(179,179,179)" stroke-linejoin="round" d="M 2307,9089 L 2307,2440 "/>
 <path fill="none" stroke="rgb(255,66,14)" stroke-width="80" stroke-linejoin="round" d="M 3734,8933 L 5162,8641 6590,8128 8018,7210 9446,6797 10872,6413 12300,6102 13728,5843 "/>
 <path fill="rgb(255,66,14)" stroke="none" d="M 3609,8933 L 3734,9058 3859,8933 3734,8808 3609,8933 Z "/>
 <path fill="none" stroke="rgb(255,66,14)" stroke-linejoin="round" d="M 3609,8933 L 3734,9058 3859,8933 3734,8808 3609,8933 Z "/>
 <path fill="rgb(255,66,14)" stroke="none" d="M 5037,8641 L 5162,8766 5287,8641 5162,8516 5037,8641 Z "/>
 <path fill="none" stroke="rgb(255,66,14)" stroke-linejoin="round" d="M 5037,8641 L 5162,8766 5287,8641 5162,8516 5037,8641 Z "/>
 <path fill="rgb(255,66,14)" stroke="none" d="M 6465,8128 L 6590,8253 6715,8128 6590,8003 6465,8128 Z "/>
 <path fill="none" stroke="rgb(255,66,14)" stroke-linejoin="round" d="M 6465,8128 L 6590,8253 6715,8128 6590,8003 6465,8128 Z "/>
 <path fill="rgb(255,66,14)" stroke="none" d="M 7893,7210 L 8018,7335 8143,7210 8018,7085 7893,7210 Z "/>
 <path fill="none" stroke="rgb(255,66,14)" stroke-linejoin="round" d="M 7893,7210 L 8018,7335 8143,7210 8018,7085 7893,7210 Z "/>
 <path fill="rgb(255,66,14)" stroke="none" d="M 9321,6797 L 9446,6922 9571,6797 9446,6672 9321,6797 Z "/>
 <path fill="none" stroke="rgb(255,66,14)" stroke-linejoin="round" d="M 9321,6797 L 9446,6922 9571,6797 9446,6672 9321,6797 Z "/>
 <path fill="rgb(255,66,14)" stroke="none" d="M 10747,6413 L 10872,6538 10997,6413 10872,6288 10747,6413 Z "/>
 <path fill="none" stroke="rgb(255,66,14)" stroke-linejoin="round" d="M 10747,6413 L 10872,6538 10997,6413 10872,6288 10747,6413 Z "/>
 <path fill="rgb(255,66,14)" stroke="none" d="M 12175,6102 L 12300,6227 12425,6102 12300,5977 12175,6102 Z "/>
 <path fill="none" stroke="rgb(255,66,14)" stroke-linejoin="round" d="M 12175,6102 L 12300,6227 12425,6102 12300,5977 12175,6102 Z "/>
 <path fill="rgb(255,66,14)" stroke="none" d="M 13603,5843 L 13728,5968 13853,5843 13728,5718 13603,5843 Z "/>
 <path fill="none" stroke="rgb(255,66,14)" stroke-linejoin="round" d="M 13603,5843 L 13728,5968 13853,5843 13728,5718 13603,5843 Z "/>
 <path fill="none" stroke="rgb(0,69,134)" stroke-width="80" stroke-linejoin="round" d="M 3734,7806 L 5162,6328 6590,5457 8018,4799 9446,4300 10872,3903 12300,3556 13728,3262 "/>
 <path fill="rgb(0,69,134)" stroke="none" d="M 3609,7681 L 3609,7931 3859,7931 3859,7681 3609,7681 Z "/>
 <path fill="none" stroke="rgb(0,69,134)" stroke-linejoin="round" d="M 3609,7681 L 3609,7931 3859,7931 3859,7681 3609,7681 Z "/>
 <path fill="rgb(0,69,134)" stroke="none" d="M 5037,6203 L 5037,6453 5287,6453 5287,6203 5037,6203 Z "/>
 <path fill="none" stroke="rgb(0,69,134)" stroke-linejoin="round" d="M 5037,6203 L 5037,6453 5287,6453 5287,6203 5037,6203 Z "/>
 <path fill="rgb(0,69,134)" stroke="none" d="M 6465,5332 L 6465,5581 6715,5581 6715,5332 6465,5332 Z "/>
 <path fill="none" stroke="rgb(0,69,134)" stroke-linejoin="round" d="M 6465,5332 L 6465,5581 6715,5581 6715,5332 6465,5332 Z "/>
 <path fill="rgb(0,69,134)" stroke="none" d="M 7893,4674 L 7893,4924 8143,4924 8143,4674 7893,4674 Z "/>
 <path fill="none" stroke="rgb(0,69,134)" stroke-linejoin="round" d="M 7893,4674 L 7893,4924 8143,4924 8143,4674 7893,4674 Z "/>
 <path fill="rgb(0,69,134)" stroke="none" d="M 9321,4175 L 9321,4425 9571,4425 9571,4175 9321,4175 Z "/>
 <path fill="none" stroke="rgb(0,69,134)" stroke-linejoin="round" d="M 9321,4175 L 9321,4425 9571,4425 9571,4175 9321,4175 Z "/>
 <path fill="rgb(0,69,134)" stroke="none" d="M 10747,3778 L 10747,4028 10997,4028 10997,3778 10747,3778 Z "/>
 <path fill="none" stroke="rgb(0,69,134)" stroke-linejoin="round" d="M 10747,3778 L 10747,4028 10997,4028 10997,3778 10747,3778 Z "/>
 <path fill="rgb(0,69,134)" stroke="none" d="M 12175,3431 L 12175,3681 12425,3681 12425,3431 12175,3431 Z "/>
 <path fill="none" stroke="rgb(0,69,134)" stroke-linejoin="round" d="M 12175,3431 L 12175,3681 12425,3681 12425,3431 12175,3431 Z "/>
 <path fill="rgb(0,69,134)" stroke="none" d="M 13603,3137 L 13603,3387 13853,3387 13853,3137 13603,3137 Z "/>
 <path fill="none" stroke="rgb(0,69,134)" stroke-linejoin="round" d="M 13603,3137 L 13603,3387 13853,3387 13853,3137 13603,3137 Z "/>
 <text class="SVGTextShape"><tspan class="TextParagraph"><tspan class="TextPosition" x="2212" y="9657"><tspan font-family="Liberation Sans, sans-serif" font-size="353px" font-weight="400" fill="rgb(0,0,0)" stroke="none" style="white-space: pre">0</tspan></tspan></tspan></text>
 <text class="SVGTextShape"><tspan class="TextParagraph"><tspan class="TextPosition" x="4876" y="9657"><tspan font-family="Liberation Sans, sans-serif" font-size="353px" font-weight="400" fill="rgb(0,0,0)" stroke="none" style="white-space: pre">500</tspan></tspan></tspan></text>
 <text class="SVGTextShape"><tspan class="TextParagraph"><tspan class="TextPosition" x="7636" y="9657"><tspan font-family="Liberation Sans, sans-serif" font-size="353px" font-weight="400" fill="rgb(0,0,0)" stroke="none" style="white-space: pre">1000</tspan></tspan></tspan></text>
 <text class="SVGTextShape"><tspan class="TextParagraph"><tspan class="TextPosition" x="10490" y="9657"><tspan font-family="Liberation Sans, sans-serif" font-size="353px" font-weight="400" fill="rgb(0,0,0)" stroke="none" style="white-space: pre">1500</tspan></tspan></tspan></text>
 <text class="SVGTextShape"><tspan class="TextParagraph"><tspan class="TextPosition" x="13346" y="9657"><tspan font-family="Liberation Sans, sans-serif" font-size="353px" font-weight="400" fill="rgb(0,0,0)" stroke="none" style="white-space: pre">2000</tspan></tspan></tspan></text>
 <text class="SVGTextShape"><tspan class="TextParagraph"><tspan class="TextPosition" x="16202" y="9657"><tspan font-family="Liberation Sans, sans-serif" font-size="353px" font-weight="400" fill="rgb(0,0,0)" stroke="none" style="white-space: pre">2500</tspan></tspan></tspan></text>
 <text class="SVGTextShape"><tspan class="TextParagraph"><tspan class="TextPosition" x="1388" y="9210"><tspan font-family="Liberation Sans, sans-serif" font-size="353px" font-weight="400" fill="rgb(0,0,0)" stroke="none" style="white-space: pre">0.01</tspan></tspan></tspan></text>
 <text class="SVGTextShape"><tspan class="TextParagraph"><tspan class="TextPosition" x="1579" y="7547"><tspan font-family="Liberation Sans, sans-serif" font-size="353px" font-weight="400" fill="rgb(0,0,0)" stroke="none" style="white-space: pre">0.1</tspan></tspan></tspan></text>
 <text class="SVGTextShape"><tspan class="TextParagraph"><tspan class="TextPosition" x="1866" y="5885"><tspan font-family="Liberation Sans, sans-serif" font-size="353px" font-weight="400" fill="rgb(0,0,0)" stroke="none" style="white-space: pre">1</tspan></tspan></tspan></text>
 <text class="SVGTextShape"><tspan class="TextParagraph"><tspan class="TextPosition" x="1674" y="4224"><tspan font-family="Liberation Sans, sans-serif" font-size="353px" font-weight="400" fill="rgb(0,0,0)" stroke="none" style="white-space: pre">10</tspan></tspan></tspan></text>
 <text class="SVGTextShape"><tspan class="TextParagraph"><tspan class="TextPosition" x="1483" y="2561"><tspan font-family="Liberation Sans, sans-serif" font-size="353px" font-weight="400" fill="rgb(0,0,0)" stroke="none" style="white-space: pre">100</tspan></tspan></tspan></text>
 <text class="SVGTextShape"><tspan class="TextParagraph"><tspan class="TextPosition" x="7643" y="878"><tspan font-family="Liberation Sans, sans-serif" font-size="459px" font-weight="400" fill="rgb(0,0,0)" stroke="none" style="white-space: pre">Tiempo de ejecución</tspan></tspan></tspan></text>
 <text class="SVGTextShape"><tspan class="TextParagraph"><tspan class="TextPosition" x="7402" y="1827"><tspan font-family="Liberation Sans, sans-serif" font-size="388px" font-weight="400" fill="rgb(0,0,0)" stroke="none" style="white-space: pre">Gauss Jordan - CPU/GPU</tspan></tspan></tspan></text>
 <path fill="none" stroke="rgb(0,69,134)" stroke-width="80" stroke-linejoin="round" d="M 17473,5212 L 18273,5212 "/>
 <path fill="rgb(0,69,134)" stroke="none" d="M 17767,5107 L 17767,5318 17978,5318 17978,5107 17767,5107 Z "/>
 <path fill="none" stroke="rgb(0,69,134)" stroke-linejoin="round" d="M 17767,5107 L 17767,5318 17978,5318 17978,5107 17767,5107 Z "/>
 <path fill="none" stroke="rgb(255,66,14)" stroke-width="80" stroke-linejoin="round" d="M 17473,5709 L 18273,5709 "/>
 <path fill="rgb(255,66,14)" stroke="none" d="M 17767,5709 L 17873,5815 17978,5709 17873,5604 17767,5709 Z "/>
 <path fill="none" stroke="rgb(255,66,14)" stroke-linejoin="round" d="M 17767,5709 L 17873,5815 17978,5709 17873,5604 17767,5709 Z "/>
 <text class="SVGTextShape"><tspan class="TextParagraph"><tspan class="TextPosition" x="18373" y="5332"><tspan font-family="Liberation Sans, sans-serif" font-size="353px" font-weight="400" fill="rgb(0,0,0)" stroke="none" style="white-space: pre">CPU</tspan></tspan></tspan></text>
 <text class="SVGTextShape"><tspan class="TextParagraph"><tspan class="TextPosition" x="18373" y="5829"><tspan font-family="Liberation Sans, sans-serif" font-size="353px" font-weight="400" fill="rgb(0,0,0)" stroke="none" style="white-space: pre">GPU</tspan></tspan></tspan></text>
 <text class="SVGTextShape"><tspan class="TextParagraph"><tspan class="TextPosition" x="8252" y="10343"><tspan font-family="Liberation Sans, sans-serif" font-size="318px" font-weight="400" fill="rgb(0,0,0)" stroke="none" style="white-space: pre">Tamaño SEL</tspan></tspan></tspan></text>
 <text class="SVGTextShape" transform="rotate(-90 825 6748)"><tspan class="TextParagraph"><tspan class="TextPosition" x="825" y="6748"><tspan font-family="Liberation Sans, sans-serif" font-size="318px" font-weight="400" fill="rgb(0,0,0)" stroke="none" style="white-space: pre">Tiempo (s)</tspan></tspan></tspan></text>
</svg>